<?xml version="1.0" encoding="utf-8"?>
<!-- Generator: Adobe Illustrator 16.0.3, SVG Export Plug-In . SVG Version: 6.00 Build 0)  -->
<!DOCTYPE svg PUBLIC "-//W3C//DTD SVG 1.1//EN" "http://www.w3.org/Graphics/SVG/1.1/DTD/svg11.dtd">
<svg version="1.1" id="Layer_1" xmlns="http://www.w3.org/2000/svg" xmlns:xlink="http://www.w3.org/1999/xlink" x="0px" y="0px"
	 width="1792px" height="1792px" viewBox="0 0 1792 1792" enable-background="new 0 0 1792 1792" xml:space="preserve">
<path d="M416,1664c-79.333,0-147.167-28.167-203.5-84.5S128,1455.333,128,1376V416c0-79.333,28.167-147.167,84.5-203.5
	S336.667,128,416,128h960c79.333,0,147.167,28.167,203.5,84.5S1664,336.667,1664,416v960c0,79.333-28.167,147.167-84.5,203.5
	S1455.333,1664,1376,1664H416z"/>
<g>
	<g>
		<g>
			<path fill="#FFFFFF" d="M804.29,1244.132c2.854,14.77-6.537,30.591-20.869,35.158c0,0-81.08,25.838-177.622,25.838
				c-274.322,0-415.604-170.716-415.604-396.766c0-270.79,193.085-421.49,433.264-421.49c93.01,0,169.583,26.404,169.583,26.404
				c14.221,4.904,22.802,20.839,19.068,35.411l-22.922,89.47c-3.733,14.572-18.448,22.555-32.7,17.741
				c0,0-61.212-20.68-124.789-20.68c-142.459,0-253.13,85.946-253.13,262.549c0,158.94,94.188,259.016,254.307,259.016
				c54.158,0,123.129-18.732,123.129-18.732c14.517-3.943,28.729,4.915,31.584,19.685L804.29,1244.132z"/>
		</g>
		<g>
			<path fill="#FFFFFF" d="M1152.331,1293.354c-15.043,0-31.106-11.721-35.697-26.046L879.02,525.868
				c-4.591-14.325,3.96-26.045,19.003-26.045h141.916c15.043,0,30.754,11.828,34.913,26.284l81.418,282.976
				c4.159,14.457,10.884,38.135,14.943,52.62c0,0,44.422,158.508,63.26,257.404l0,0c1.942,0,6.358-11.979,9.814-26.619
				c0,0,38.457-162.933,65.537-253.589l93.426-312.869c4.305-14.414,20.134-26.207,35.177-26.207h136.027
				c15.043,0,23.422,11.664,18.621,25.92l-249.799,741.692c-4.801,14.256-21.037,25.92-36.08,25.92H1152.331z"/>
		</g>
	</g>
</g>
</svg>
