<?xml version="1.0" encoding="utf-8"?>
<!-- Generator: Adobe Illustrator 16.0.3, SVG Export Plug-In . SVG Version: 6.00 Build 0)  -->
<!DOCTYPE svg PUBLIC "-//W3C//DTD SVG 1.1//EN" "http://www.w3.org/Graphics/SVG/1.1/DTD/svg11.dtd">
<svg version="1.1" id="Layer_1" xmlns="http://www.w3.org/2000/svg" xmlns:xlink="http://www.w3.org/1999/xlink" x="0px" y="0px"
	 width="1792px" height="1792px" viewBox="0 0 1792 1792" enable-background="new 0 0 1792 1792" xml:space="preserve">
<g>
	<g>
		<g>
			<path d="M1579.5,212.5c-56.333-56.333-124.167-84.5-203.5-84.5H416c-79.333,0-147.167,28.167-203.5,84.5S128,336.667,128,416v960
				c0,79.333,28.167,147.167,84.5,203.5S336.667,1664,416,1664h960c79.333,0,147.167-28.167,203.5-84.5s84.5-124.167,84.5-203.5V416
				C1664,336.667,1635.833,268.833,1579.5,212.5z M632.877,1156.782c54.158,0,114.203-11.773,149.523-25.901l27.079,140.104
				c0,0-107.139,34.143-203.681,34.143c-274.322,0-415.604-170.716-415.604-396.766c0-270.79,193.085-421.49,433.264-421.49
				c93.01,0,195.44,35.32,195.44,35.32l-36.498,142.459c-36.498-15.306-87.124-29.434-150.701-29.434
				c-142.459,0-253.13,85.946-253.13,262.549C378.57,1056.707,472.758,1156.782,632.877,1156.782z M1334.547,1293.354H1124.98
				L870.672,499.822h196.617l96.543,335.544c27.078,94.188,51.803,184.844,70.641,283.74h3.531
				c20.016-95.364,44.74-189.552,71.82-280.208l101.252-339.076h190.729L1334.547,1293.354z"/>
		</g>
	</g>
</g>
</svg>
