<?xml version="1.0" encoding="utf-8"?>
<!-- Generator: Adobe Illustrator 16.0.3, SVG Export Plug-In . SVG Version: 6.00 Build 0)  -->
<!DOCTYPE svg PUBLIC "-//W3C//DTD SVG 1.1//EN" "http://www.w3.org/Graphics/SVG/1.1/DTD/svg11.dtd">
<svg version="1.1" id="Layer_1" xmlns="http://www.w3.org/2000/svg" xmlns:xlink="http://www.w3.org/1999/xlink" x="0px" y="0px"
	 width="1792px" height="1792px" viewBox="0 0 1792 1792" enable-background="new 0 0 1792 1792" xml:space="preserve">
<g>
	<g>
		<path d="M1579.5,212.5c-56.333-56.333-124.167-84.5-203.5-84.5H416c-79.333,0-147.167,28.167-203.5,84.5S128,336.667,128,416v960
			c0,79.333,28.167,147.167,84.5,203.5S336.667,1664,416,1664h960c79.333,0,147.167-28.167,203.5-84.5s84.5-124.167,84.5-203.5V416
			C1664,336.667,1635.833,268.833,1579.5,212.5z M520.092,1059.634h-100.27l-31.494-160.231
			c-4.109-21.49-7.608-40.885-10.608-60.537c-3.749,20.957-7.688,40.523-12.451,60.771l-35.31,159.997H228.657l-88.64-373.394
			h103.219l28.246,153.968c4.951,26.407,9.687,54.184,13.971,80.135c4.478-24.71,9.789-51.396,15.925-81.357l31.545-152.746h99.041
			l29.872,157.099c4.396,23.151,8.296,45.89,12.023,70.222c2.583-15.343,5.367-30.968,8.226-47.014
			c1.617-9.076,3.241-18.193,4.841-27.334l0.035-0.185l30.447-152.788h99.081L520.092,1059.634z M1036.555,1059.634H936.284
			l-31.493-160.231c-4.109-21.493-7.608-40.884-10.608-60.537c-3.749,20.956-7.688,40.523-12.451,60.772l-35.309,159.996H745.119
			l-88.64-373.394h103.219l28.246,153.968c4.951,26.406,9.687,54.185,13.971,80.135c4.478-24.71,9.789-51.396,15.925-81.357
			l31.545-152.746h99.041l29.871,157.099c4.395,23.147,8.297,45.887,12.023,70.221c2.583-15.348,5.368-30.978,8.229-47.03
			c1.616-9.071,3.239-18.182,4.839-27.318l0.034-0.185l30.446-152.788h99.082L1036.555,1059.634z M1553.018,1059.634h-100.271
			l-31.493-160.231c-4.109-21.491-7.607-40.882-10.608-60.537c-3.748,20.956-7.687,40.52-12.451,60.772l-35.31,159.996h-101.303
			l-88.639-373.394h103.219l28.246,153.968c4.951,26.407,9.687,54.183,13.971,80.134c4.479-24.713,9.788-51.395,15.926-81.356
			l31.545-152.746h99.04l29.872,157.099c4.395,23.15,8.296,45.891,12.022,70.223c2.582-15.338,5.365-30.956,8.223-46.997
			c1.618-9.082,3.244-18.205,4.845-27.353l0.034-0.185l30.447-152.788h99.08L1553.018,1059.634z"/>
	</g>
</g>
</svg>
